<?xml version="1.0" encoding="iso-8859-1"?>
<!-- Generator: Adobe Illustrator 18.1.1, SVG Export Plug-In . SVG Version: 6.00 Build 0)  -->
<svg version="1.1" id="Capa_1" xmlns="http://www.w3.org/2000/svg" xmlns:xlink="http://www.w3.org/1999/xlink" x="0px" y="0px"
	 viewBox="0 0 33.1 33.1" style="enable-background:new 0 0 33.1 33.1;" xml:space="preserve">
<g>
	<path style="fill:#00a8e8;" d="M5.6,18.722c0,0.358,0.035,0.707,0.084,1.051C2.487,19.42,0,16.712,0,13.421v-2.212
		c0-3.531,2.862-6.393,6.393-6.393h11.824c2.797,0,5.168,1.799,6.036,4.301H12.994c-4.076,0-7.393,3.316-7.393,7.393L5.6,18.722z
		 M33.1,27.082l-0.528,0.478c-0.523,0.474-1.341,0.724-2.365,0.724c-1.621,0-3.964-0.694-5.636-2.238H13.41
		c-3.802,0-6.894-3.092-6.894-6.893v-2.212c0-3.802,3.093-6.894,6.894-6.894h11.824c3.802,0,6.894,3.093,6.894,6.894v2.212
		c0,1.822-0.733,3.578-2.023,4.868c0.41,1.193,1.205,2.109,2.367,2.727L33.1,27.082z M12.722,16.636h9.942v-1.724h-9.942
		C12.722,14.912,12.722,16.636,12.722,16.636z M26.533,18.912H12.722v1.723h13.811V18.912z"/>
</g>
<g>
</g>
<g>
</g>
<g>
</g>
<g>
</g>
<g>
</g>
<g>
</g>
<g>
</g>
<g>
</g>
<g>
</g>
<g>
</g>
<g>
</g>
<g>
</g>
<g>
</g>
<g>
</g>
<g>
</g>
</svg>
